<?xml version="1.0" encoding="UTF-8" standalone="no"?>
<!-- Created with Inkscape (http://www.inkscape.org/) -->

<svg
   width="120"
   height="120"
   viewBox="0 0 120 120"
   version="1.1"
   id="svg5"
   inkscape:version="1.1.2 (b8e25be833, 2022-02-05)"
   sodipodi:docname="campana.svg"
   xmlns:inkscape="http://www.inkscape.org/namespaces/inkscape"
   xmlns:sodipodi="http://sodipodi.sourceforge.net/DTD/sodipodi-0.dtd"
   xmlns="http://www.w3.org/2000/svg"
   xmlns:svg="http://www.w3.org/2000/svg">
  <sodipodi:namedview
     id="namedview7"
     pagecolor="#505050"
     bordercolor="#ffffff"
     borderopacity="1"
     inkscape:pageshadow="0"
     inkscape:pageopacity="0"
     inkscape:pagecheckerboard="1"
     inkscape:document-units="px"
     showgrid="false"
     inkscape:zoom="3.0582368"
     inkscape:cx="36.458916"
     inkscape:cy="59.8384"
     inkscape:window-width="1366"
     inkscape:window-height="705"
     inkscape:window-x="-8"
     inkscape:window-y="-8"
     inkscape:window-maximized="1"
     inkscape:current-layer="layer1" />
  <defs
     id="defs2">
    <linearGradient
       id="linearGradient10660"
       inkscape:swatch="solid">
      <stop
         style="stop-color:#ffffff;stop-opacity:1;"
         offset="0"
         id="stop10658" />
    </linearGradient>
  </defs>
  <g
     inkscape:label="Capa 1"
     inkscape:groupmode="layer"
     id="layer1">
    <path
       style="fill:#ffffff;stroke-width:0.262131"
       d="m 56.953863,119.59612 c -8.039598,-1.37682 -14.253779,-7.52778 -15.86801,-15.70656 l -0.317597,-1.60916 -14.06906,-0.14575 C 14.071337,102.00383 12.485791,101.93937 11.221003,101.50537 6.3923885,99.848524 2.8740605,96.356964 1.3202505,91.679953 -1.0281865,84.611099 1.7346645,77.154724 8.1637925,73.210621 9.6805515,72.280137 11.994775,71.566125 14.284503,71.322189 17.6668,70.961866 17.369588,72.534818 17.372061,54.981728 17.374661,36.856706 17.552207,34.78061 19.671991,28.09501 23.424677,16.259397 32.416158,6.170397 43.312287,1.5691286 L 45.461957,0.6613561 45.3462,-1.4318358 C 45.890896,-23.13875 74.445115,-21.113688 73.938443,-1.6054555 l -0.10208,2.31844712 2.44753,1.14009998 c 4.94284,2.302463 8.79307,5.1262044 12.95199,9.4989354 7.03073,7.392181 11.329347,16.842948 12.412247,27.289092 0.15475,1.492794 0.26997,8.719949 0.26997,16.933478 0,16.898359 -0.30196,15.387248 3.14797,15.753291 5.53802,0.587598 10.26378,4.068028 12.48435,9.194506 3.07488,7.098773 0.171,15.989713 -6.39548,19.581276 -3.52772,1.92949 -2.97938,1.86951 -18.566077,2.03098 l -14.06906,0.14575 -0.31759,1.60916 c -1.45841,7.38928 -6.89769,13.37972 -13.85998,15.26439 -1.91568,0.51858 -5.64057,0.7415 -7.38837,0.44217 z m 7.23634,-9.68445 c 2.71652,-1.39991 4.52435,-3.57842 5.5878,-6.73356 l 0.34776,-1.03181 H 59.644033 49.162296 l 0.34777,1.03181 c 0.965867,2.86561 2.549067,4.92669 4.885307,6.35987 1.85591,1.13852 3.28148,1.4702 5.83203,1.35689 1.91244,-0.085 2.50503,-0.23197 3.9628,-0.9832 z M 106.0669,92.980544 c 1.31549,-0.412566 3.23263,-2.198516 3.82474,-3.563009 0.73143,-1.685553 0.64524,-4.181717 -0.20056,-5.80844 -1.19497,-2.298265 -3.00217,-3.359122 -6.33895,-3.721078 -1.141,-0.123775 -2.73709,-0.485024 -3.546867,-0.802785 -2.50765,-0.984011 -4.89076,-3.724818 -5.89783,-6.783061 -0.18909,-0.574225 -0.34199,-6.529689 -0.45597,-17.760067 -0.18669,-18.394801 -0.14536,-17.860847 -1.77687,-22.958393 -1.70802,-5.336614 -4.51186,-10.044908 -8.45956,-14.205555 C 78.051253,11.935828 72.041713,8.6052742 65.098653,7.3378627 62.268823,6.8212956 57.100083,6.8283261 54.007493,7.3529495 41.814832,9.4212974 31.415236,18.76182 27.497351,31.163345 c -1.598772,5.060688 -1.672577,6.080408 -1.672577,23.108563 0,9.87883 -0.09896,15.89008 -0.278484,16.915936 -0.601516,3.437277 -3.147325,6.753073 -6.063483,7.897388 -0.809782,0.317761 -2.405876,0.67901 -3.546874,0.802785 -3.336777,0.361956 -5.143984,1.422813 -6.3389495,3.721078 -0.784064,1.507985 -0.932471,3.980506 -0.329579,5.490934 0.554746,1.389815 1.9633065,2.884057 3.3608695,3.565313 l 1.282897,0.625367 45.575032,0.0023 c 34.1963,0.0023 45.826117,-0.07619 46.580697,-0.312781 z"
       id="path1692"
       sodipodi:nodetypes="cscscssscssccccsssssssscsscsscccsssscsssssssssssssssssscccc" />
    <path
       style="fill:#f9f9f9;fill-opacity:0;stroke-width:0.0326985;stroke-linecap:round;stroke-linejoin:bevel;stroke-opacity:0.991131;paint-order:markers stroke fill;stroke-miterlimit:4;stroke-dasharray:none"
       d="M 12.8677,92.544213 C 11.164568,91.626815 9.4069186,89.446706 9.1514813,87.934786 8.5333602,84.276161 11.000569,80.882582 14.714361,80.2832 c 2.723922,-0.439626 4.616707,-0.933972 5.744556,-1.500335 1.990061,-0.999334 4.072141,-3.652457 4.972595,-6.336409 0.200171,-0.596641 0.428281,-8.056936 0.565477,-18.4938 0.216929,-16.502467 0.270013,-17.641968 0.936814,-20.109626 3.467099,-12.83084 11.916531,-21.901182 23.818212,-25.5685022 2.672252,-0.8234131 3.286168,-0.8854729 8.7594,-0.8854729 5.474471,0 6.086732,0.061928 8.762104,0.8862561 5.343317,1.6463693 9.065527,3.88116 13.403825,8.047569 4.47771,4.300298 7.076675,8.152707 9.187663,13.618757 2.041016,5.284858 2.148803,6.391322 2.452047,25.170566 0.311951,19.31837 0.20087,18.549447 3.132478,21.683573 1.658511,1.773084 3.713088,2.812571 6.224008,3.148965 4.39755,0.58915 6.64809,2.234627 7.31602,5.349075 0.196,0.913899 0.29773,1.850688 0.22607,2.081752 -0.0717,0.231065 -0.21828,0.822065 -0.32582,1.313332 -0.24271,1.108776 -1.90993,3.04394 -3.25923,3.783036 -0.93861,0.514133 -4.42489,0.561454 -46.79218,0.635124 -44.96049,0.07818 -45.79931,0.06813 -46.9707,-0.562847 z"
       id="path7045" />
    <path
       style="fill:#ff0000;fill-opacity:0;stroke-width:0.0326985;stroke-linecap:round;stroke-linejoin:bevel;stroke-opacity:0.991131;paint-order:markers stroke fill;stroke-miterlimit:4;stroke-dasharray:none"
       d="M 12.8677,92.544213 C 11.164568,91.626815 9.4069186,89.446706 9.1514813,87.934786 8.5333602,84.276161 11.000569,80.882582 14.714361,80.2832 c 2.723922,-0.439626 4.616707,-0.933972 5.744556,-1.500335 1.990061,-0.999334 4.072141,-3.652457 4.972595,-6.336409 0.200171,-0.596641 0.428281,-8.056936 0.565477,-18.4938 0.216929,-16.502467 0.270013,-17.641968 0.936814,-20.109626 3.467099,-12.83084 11.916531,-21.901182 23.818212,-25.5685022 2.672252,-0.8234131 3.286168,-0.8854729 8.7594,-0.8854729 5.474471,0 6.086732,0.061928 8.762104,0.8862561 5.343317,1.6463693 9.065527,3.88116 13.403825,8.047569 4.47771,4.300298 7.076675,8.152707 9.187663,13.618757 2.041016,5.284858 2.148803,6.391322 2.452047,25.170566 0.311951,19.31837 0.20087,18.549447 3.132478,21.683573 1.658511,1.773084 3.713088,2.812571 6.224008,3.148965 4.39755,0.58915 6.64809,2.234627 7.31602,5.349075 0.196,0.913899 0.29773,1.850688 0.22607,2.081752 -0.0717,0.231065 -0.21828,0.822065 -0.32582,1.313332 -0.24271,1.108776 -1.90993,3.04394 -3.25923,3.783036 -0.93861,0.514133 -4.42489,0.561454 -46.79218,0.635124 -44.96049,0.07818 -45.79931,0.06813 -46.9707,-0.562847 z"
       id="path7084" />
    <path
       style="fill:#ff0000;fill-opacity:0;stroke-width:0.0326986;stroke-linecap:round;stroke-linejoin:bevel;stroke-opacity:0.991131;paint-order:markers stroke fill"
       d="m 56.568543,119.36021 c -3.986481,-0.85379 -7.935076,-3.14043 -10.645886,-6.16507 -1.968713,-2.19662 -4.024561,-6.27525 -4.602983,-9.13191 l -0.4138,-2.04366 -10.970349,-0.0248 c -6.033692,-0.0137 -12.680924,-0.12946 -14.771628,-0.25736 -3.416123,-0.20899 -4.019163,-0.34315 -5.9516687,-1.32404 C 3.9253654,97.7299 0.81746449,92.644113 0.81746449,86.676132 c 0,-4.20402 1.29158451,-7.465753 4.17838181,-10.551972 2.5991836,-2.778738 5.4377427,-4.137786 9.7838107,-4.684307 0.935124,-0.117591 1.891557,-0.444155 2.125408,-0.725696 0.330212,-0.397553 0.470556,-4.170851 0.628323,-16.893093 0.131096,-10.571546 0.347304,-17.25095 0.609632,-18.833594 0.580514,-3.502283 2.089086,-8.374103 3.617411,-11.682156 C 26.247628,13.592804 34.622606,5.3297481 43.73435,1.6250632 L 45.614518,0.86061746 V -1.3520186 c 0,-6.4595337 3.005507,-11.7055084 8.084639,-14.1113734 2.094112,-0.991933 2.421307,-1.049391 5.975751,-1.049391 3.616345,0 3.847985,0.04281 6.049237,1.118047 5.18039,2.530436 7.995868,7.3102261 8.008752,13.5963141 l 0.0054,2.61588639 3.469996,1.76056641 c 4.441641,2.2535501 7.718987,4.73568 11.621896,8.8019531 6.492136,6.763882 10.509023,14.717544 12.209701,24.175876 0.39812,2.214151 0.56093,6.411567 0.71674,18.477454 0.13513,10.46517 0.32218,15.855404 0.56735,16.349289 0.30049,0.605313 0.83072,0.813525 2.9711,1.166673 3.60772,0.595251 6.42119,2.012659 8.82759,4.447278 4.69393,4.748968 5.74999,11.538949 2.75645,17.722767 -1.12123,2.316152 -4.20037,5.404252 -6.60611,6.625349 -1.81832,0.92293 -2.56643,1.09261 -5.98325,1.35711 -2.14779,0.16627 -8.842729,0.30578 -14.877634,0.31004 l -10.972555,0.008 -0.539271,2.24695 c -1.721616,7.17341 -6.639162,12.58069 -13.21571,14.53186 -2.13523,0.6335 -6.402215,0.92888 -8.116009,0.56183 z m 7.714229,-9.34472 c 2.727676,-1.38222 4.970465,-4.18647 5.71235,-7.14237 l 0.214228,-0.85355 H 59.566711 48.924072 l 0.507365,1.48904 c 1.142553,3.35321 4.158157,6.35792 7.261795,7.23558 2.180724,0.61667 5.578342,0.29045 7.58954,-0.7287 z M 107.1766,92.587731 c 2.61991,-1.628873 3.7411,-4.2528 3.15306,-7.379137 -0.36524,-1.941825 -1.5476,-3.578781 -3.19022,-4.416784 -0.67015,-0.341886 -2.57152,-0.870272 -4.22527,-1.174186 -4.342435,-0.798032 -6.315565,-2.242276 -8.248869,-6.037812 -0.734959,-1.4429 -0.749177,-1.695173 -1.01363,-17.984219 C 93.504155,46.509158 93.287694,38.191941 93.170646,37.112888 92.670949,32.50624 89.47755,24.94862 86.186268,20.583403 82.569992,15.787139 77.089432,11.396934 72.117947,9.3139625 67.448223,7.357426 65.635469,7.0297129 59.511415,7.0349307 53.25428,7.0402618 51.397625,7.3886469 46.595476,9.4584931 36.515442,13.803239 28.803741,23.43913 26.295215,34.823987 c -0.219831,0.997696 -0.446109,8.453332 -0.580556,19.128669 l -0.220318,17.49374 -0.936288,2.038531 c -0.992552,2.161036 -3.398203,4.729451 -5.011628,5.350711 -0.499529,0.192349 -2.011812,0.560819 -3.360628,0.818824 -3.539653,0.677077 -4.342313,0.997457 -5.461348,2.179894 -1.2893573,1.362406 -1.6180826,2.032945 -1.8919152,3.859171 -0.4337029,2.892418 1.0388659,5.73504 3.7238302,7.188416 1.152917,0.624079 2.121903,0.635448 47.282036,0.554817 l 46.105,-0.08232 z"
       id="path7160" />
    <path
       style="fill:#ffffff;fill-opacity:0;stroke-width:0.0326986;stroke-linecap:round;stroke-linejoin:bevel;stroke-opacity:0.991131;paint-order:markers stroke fill"
       d="m 56.568543,119.36021 c -3.986481,-0.85379 -7.935076,-3.14043 -10.645886,-6.16507 -1.968713,-2.19662 -4.024561,-6.27525 -4.602983,-9.13191 l -0.4138,-2.04366 -10.970349,-0.0248 c -6.033692,-0.0137 -12.680924,-0.12946 -14.771628,-0.25736 -3.416123,-0.20899 -4.019163,-0.34315 -5.9516687,-1.32404 C 3.9253654,97.7299 0.81746449,92.644113 0.81746449,86.676132 c 0,-4.20402 1.29158451,-7.465753 4.17838181,-10.551972 2.5991836,-2.778738 5.4377427,-4.137786 9.7838107,-4.684307 0.935124,-0.117591 1.891557,-0.444155 2.125408,-0.725696 0.330212,-0.397553 0.470556,-4.170851 0.628323,-16.893093 0.131096,-10.571546 0.347304,-17.25095 0.609632,-18.833594 0.580514,-3.502283 2.089086,-8.374103 3.617411,-11.682156 C 26.247628,13.592804 34.622606,5.3297481 43.73435,1.6250632 L 45.614518,0.86061746 V -1.3520186 c 0,-6.4595337 3.005507,-11.7055084 8.084639,-14.1113734 2.094112,-0.991933 2.421307,-1.049391 5.975751,-1.049391 3.616345,0 3.847985,0.04281 6.049237,1.118047 5.18039,2.530436 7.995868,7.3102261 8.008752,13.5963141 l 0.0054,2.61588639 3.469996,1.76056641 c 4.441641,2.2535501 7.718987,4.73568 11.621896,8.8019531 6.492136,6.763882 10.509023,14.717544 12.209701,24.175876 0.39812,2.214151 0.56093,6.411567 0.71674,18.477454 0.13513,10.46517 0.32218,15.855404 0.56735,16.349289 0.30049,0.605313 0.83072,0.813525 2.9711,1.166673 3.60772,0.595251 6.42119,2.012659 8.82759,4.447278 4.69393,4.748968 5.74999,11.538949 2.75645,17.722767 -1.12123,2.316152 -4.20037,5.404252 -6.60611,6.625349 -1.81832,0.92293 -2.56643,1.09261 -5.98325,1.35711 -2.14779,0.16627 -8.842729,0.30578 -14.877634,0.31004 l -10.972555,0.008 -0.539271,2.24695 c -1.721616,7.17341 -6.639162,12.58069 -13.21571,14.53186 -2.13523,0.6335 -6.402215,0.92888 -8.116009,0.56183 z m 7.714229,-9.34472 c 2.727676,-1.38222 4.970465,-4.18647 5.71235,-7.14237 l 0.214228,-0.85355 H 59.566711 48.924072 l 0.507365,1.48904 c 1.142553,3.35321 4.158157,6.35792 7.261795,7.23558 2.180724,0.61667 5.578342,0.29045 7.58954,-0.7287 z M 107.1766,92.587731 c 2.61991,-1.628873 3.7411,-4.2528 3.15306,-7.379137 -0.36524,-1.941825 -1.5476,-3.578781 -3.19022,-4.416784 -0.67015,-0.341886 -2.57152,-0.870272 -4.22527,-1.174186 -4.342435,-0.798032 -6.315565,-2.242276 -8.248869,-6.037812 -0.734959,-1.4429 -0.749177,-1.695173 -1.01363,-17.984219 C 93.504155,46.509158 93.287694,38.191941 93.170646,37.112888 92.670949,32.50624 89.47755,24.94862 86.186268,20.583403 82.569992,15.787139 77.089432,11.396934 72.117947,9.3139625 67.448223,7.357426 65.635469,7.0297129 59.511415,7.0349307 53.25428,7.0402618 51.397625,7.3886469 46.595476,9.4584931 36.515442,13.803239 28.803741,23.43913 26.295215,34.823987 c -0.219831,0.997696 -0.446109,8.453332 -0.580556,19.128669 l -0.220318,17.49374 -0.936288,2.038531 c -0.992552,2.161036 -3.398203,4.729451 -5.011628,5.350711 -0.499529,0.192349 -2.011812,0.560819 -3.360628,0.818824 -3.539653,0.677077 -4.342313,0.997457 -5.461348,2.179894 -1.2893573,1.362406 -1.6180826,2.032945 -1.8919152,3.859171 -0.4337029,2.892418 1.0388659,5.73504 3.7238302,7.188416 1.152917,0.624079 2.121903,0.635448 47.282036,0.554817 l 46.105,-0.08232 z"
       id="path7199" />
    <path
       style="fill:#ffffff;fill-opacity:0;stroke-width:0.0326985;stroke-linecap:round;stroke-linejoin:bevel;stroke-opacity:0.991131;paint-order:markers stroke fill;stroke-miterlimit:4;stroke-dasharray:none"
       d="M 12.8677,92.544213 C 11.164568,91.626815 9.4069186,89.446706 9.1514813,87.934786 8.5333602,84.276161 11.000569,80.882582 14.714361,80.2832 c 2.723922,-0.439626 4.616707,-0.933972 5.744556,-1.500335 1.990061,-0.999334 4.072141,-3.652457 4.972595,-6.336409 0.200171,-0.596641 0.428281,-8.056936 0.565477,-18.4938 0.216929,-16.502467 0.270013,-17.641968 0.936814,-20.109626 3.467099,-12.83084 11.916531,-21.901182 23.818212,-25.5685022 2.672252,-0.8234131 3.286168,-0.8854729 8.7594,-0.8854729 5.474471,0 6.086732,0.061928 8.762104,0.8862561 5.343317,1.6463693 9.065527,3.88116 13.403825,8.047569 4.47771,4.300298 7.076675,8.152707 9.187663,13.618757 2.041016,5.284858 2.148803,6.391322 2.452047,25.170566 0.311951,19.31837 0.20087,18.549447 3.132478,21.683573 1.658511,1.773084 3.713088,2.812571 6.224008,3.148965 4.39755,0.58915 6.64809,2.234627 7.31602,5.349075 0.196,0.913899 0.29773,1.850688 0.22607,2.081752 -0.0717,0.231065 -0.21828,0.822065 -0.32582,1.313332 -0.24271,1.108776 -1.90993,3.04394 -3.25923,3.783036 -0.93861,0.514133 -4.42489,0.561454 -46.79218,0.635124 -44.96049,0.07818 -45.79931,0.06813 -46.9707,-0.562847 z"
       id="path7275" />
    <path
       style="fill:#ffffff;fill-opacity:0;stroke-width:0.0326985;stroke-linecap:round;stroke-linejoin:bevel;stroke-opacity:0.991131;paint-order:markers stroke fill;stroke-miterlimit:4;stroke-dasharray:none"
       d="M 12.8677,92.544213 C 11.164568,91.626815 9.4069186,89.446706 9.1514813,87.934786 8.5333602,84.276161 11.000569,80.882582 14.714361,80.2832 c 2.723922,-0.439626 4.616707,-0.933972 5.744556,-1.500335 1.990061,-0.999334 4.072141,-3.652457 4.972595,-6.336409 0.200171,-0.596641 0.428281,-8.056936 0.565477,-18.4938 0.216929,-16.502467 0.270013,-17.641968 0.936814,-20.109626 3.467099,-12.83084 11.916531,-21.901182 23.818212,-25.5685022 2.672252,-0.8234131 3.286168,-0.8854729 8.7594,-0.8854729 5.474471,0 6.086732,0.061928 8.762104,0.8862561 5.343317,1.6463693 9.065527,3.88116 13.403825,8.047569 4.47771,4.300298 7.076675,8.152707 9.187663,13.618757 2.041016,5.284858 2.148803,6.391322 2.452047,25.170566 0.311951,19.31837 0.20087,18.549447 3.132478,21.683573 1.658511,1.773084 3.713088,2.812571 6.224008,3.148965 4.39755,0.58915 6.64809,2.234627 7.31602,5.349075 0.196,0.913899 0.29773,1.850688 0.22607,2.081752 -0.0717,0.231065 -0.21828,0.822065 -0.32582,1.313332 -0.24271,1.108776 -1.90993,3.04394 -3.25923,3.783036 -0.93861,0.514133 -4.42489,0.561454 -46.79218,0.635124 -44.96049,0.07818 -45.79931,0.06813 -46.9707,-0.562847 z"
       id="path7314" />
    <path
       style="fill:#ffffff;fill-opacity:0;stroke-width:0.0326985;stroke-linecap:round;stroke-linejoin:bevel;stroke-opacity:0.991131;paint-order:markers stroke fill;stroke-miterlimit:4;stroke-dasharray:none"
       d="M 12.8677,92.544213 C 11.164568,91.626815 9.4069186,89.446706 9.1514813,87.934786 8.5333602,84.276161 11.000569,80.882582 14.714361,80.2832 c 2.723922,-0.439626 4.616707,-0.933972 5.744556,-1.500335 1.990061,-0.999334 4.072141,-3.652457 4.972595,-6.336409 0.200171,-0.596641 0.428281,-8.056936 0.565477,-18.4938 0.216929,-16.502467 0.270013,-17.641968 0.936814,-20.109626 3.467099,-12.83084 11.916531,-21.901182 23.818212,-25.5685022 2.672252,-0.8234131 3.286168,-0.8854729 8.7594,-0.8854729 5.474471,0 6.086732,0.061928 8.762104,0.8862561 5.343317,1.6463693 9.065527,3.88116 13.403825,8.047569 4.47771,4.300298 7.076675,8.152707 9.187663,13.618757 2.041016,5.284858 2.148803,6.391322 2.452047,25.170566 0.311951,19.31837 0.20087,18.549447 3.132478,21.683573 1.658511,1.773084 3.713088,2.812571 6.224008,3.148965 4.39755,0.58915 6.64809,2.234627 7.31602,5.349075 0.196,0.913899 0.29773,1.850688 0.22607,2.081752 -0.0717,0.231065 -0.21828,0.822065 -0.32582,1.313332 -0.24271,1.108776 -1.90993,3.04394 -3.25923,3.783036 -0.93861,0.514133 -4.42489,0.561454 -46.79218,0.635124 -44.96049,0.07818 -45.79931,0.06813 -46.9707,-0.562847 z"
       id="path7390" />
    <path
       style="fill:#ffffff;fill-opacity:1;stroke-width:0.0326985;stroke-linecap:round;stroke-linejoin:bevel;stroke-opacity:0.991131;paint-order:markers stroke fill;stroke-miterlimit:4;stroke-dasharray:none"
       d="M 12.8677,92.544213 C 11.164568,91.626815 9.4069186,89.446706 9.1514813,87.934786 8.5333602,84.276161 11.000569,80.882582 14.714361,80.2832 c 2.723922,-0.439626 4.616707,-0.933972 5.744556,-1.500335 1.990061,-0.999334 4.072141,-3.652457 4.972595,-6.336409 0.200171,-0.596641 0.428281,-8.056936 0.565477,-18.4938 0.216929,-16.502467 0.270013,-17.641968 0.936814,-20.109626 3.467099,-12.83084 11.916531,-21.901182 23.818212,-25.5685022 2.672252,-0.8234131 3.286168,-0.8854729 8.7594,-0.8854729 5.474471,0 6.086732,0.061928 8.762104,0.8862561 5.343317,1.6463693 9.065527,3.88116 13.403825,8.047569 4.47771,4.300298 7.076675,8.152707 9.187663,13.618757 2.041016,5.284858 2.148803,6.391322 2.452047,25.170566 0.311951,19.31837 0.20087,18.549447 3.132478,21.683573 1.658511,1.773084 3.713088,2.812571 6.224008,3.148965 4.39755,0.58915 6.64809,2.234627 7.31602,5.349075 0.196,0.913899 0.29773,1.850688 0.22607,2.081752 -0.0717,0.231065 -0.21828,0.822065 -0.32582,1.313332 -0.24271,1.108776 -1.90993,3.04394 -3.25923,3.783036 -0.93861,0.514133 -4.42489,0.561454 -46.79218,0.635124 -44.96049,0.07818 -45.79931,0.06813 -46.9707,-0.562847 z"
       id="path7429" />
    <path
       style="fill:#ffffff;fill-opacity:1;stroke-width:0.0326986;stroke-linecap:round;stroke-linejoin:bevel;stroke-opacity:1;paint-order:markers stroke fill;stroke:#ffffff"
       d="m 56.568543,119.36021 c -3.986481,-0.85379 -7.935076,-3.14043 -10.645886,-6.16507 -1.968713,-2.19662 -4.024561,-6.27525 -4.602983,-9.13191 l -0.4138,-2.04366 -10.970349,-0.0248 c -6.033692,-0.0137 -12.680924,-0.12946 -14.771628,-0.25736 -3.416123,-0.20899 -4.019163,-0.34315 -5.9516687,-1.32404 C 3.9253654,97.7299 0.81746449,92.644113 0.81746449,86.676132 c 0,-4.20402 1.29158451,-7.465753 4.17838181,-10.551972 2.5991836,-2.778738 5.4377427,-4.137786 9.7838107,-4.684307 0.935124,-0.117591 1.891557,-0.444155 2.125408,-0.725696 0.330212,-0.397553 0.470556,-4.170851 0.628323,-16.893093 0.131096,-10.571546 0.347304,-17.25095 0.609632,-18.833594 0.580514,-3.502283 2.089086,-8.374103 3.617411,-11.682156 C 26.247628,13.592804 34.622606,5.3297481 43.73435,1.6250632 L 45.614518,0.86061746 V -1.3520186 c 0,-6.4595337 3.005507,-11.7055084 8.084639,-14.1113734 2.094112,-0.991933 2.421307,-1.049391 5.975751,-1.049391 3.616345,0 3.847985,0.04281 6.049237,1.118047 5.18039,2.530436 7.995868,7.3102261 8.008752,13.5963141 l 0.0054,2.61588639 3.469996,1.76056641 c 4.441641,2.2535501 7.718987,4.73568 11.621896,8.8019531 6.492136,6.763882 10.509023,14.717544 12.209701,24.175876 0.39812,2.214151 0.56093,6.411567 0.71674,18.477454 0.13513,10.46517 0.32218,15.855404 0.56735,16.349289 0.30049,0.605313 0.83072,0.813525 2.9711,1.166673 3.60772,0.595251 6.42119,2.012659 8.82759,4.447278 4.69393,4.748968 5.74999,11.538949 2.75645,17.722767 -1.12123,2.316152 -4.20037,5.404252 -6.60611,6.625349 -1.81832,0.92293 -2.56643,1.09261 -5.98325,1.35711 -2.14779,0.16627 -8.842729,0.30578 -14.877634,0.31004 l -10.972555,0.008 -0.539271,2.24695 c -1.721616,7.17341 -6.639162,12.58069 -13.21571,14.53186 -2.13523,0.6335 -6.402215,0.92888 -8.116009,0.56183 z m 7.714229,-9.34472 c 2.727676,-1.38222 4.970465,-4.18647 5.71235,-7.14237 l 0.214228,-0.85355 H 59.566711 48.924072 l 0.507365,1.48904 c 1.142553,3.35321 4.158157,6.35792 7.261795,7.23558 2.180724,0.61667 5.578342,0.29045 7.58954,-0.7287 z M 107.1766,92.587731 c 2.61991,-1.628873 3.7411,-4.2528 3.15306,-7.379137 -0.36524,-1.941825 -1.5476,-3.578781 -3.19022,-4.416784 -0.67015,-0.341886 -2.57152,-0.870272 -4.22527,-1.174186 -4.342435,-0.798032 -6.315565,-2.242276 -8.248869,-6.037812 -0.734959,-1.4429 -0.749177,-1.695173 -1.01363,-17.984219 C 93.504155,46.509158 93.287694,38.191941 93.170646,37.112888 92.670949,32.50624 89.47755,24.94862 86.186268,20.583403 82.569992,15.787139 77.089432,11.396934 72.117947,9.3139625 67.448223,7.357426 65.635469,7.0297129 59.511415,7.0349307 53.25428,7.0402605 51.397625,7.3886469 46.595476,9.4584931 35.490047,14.245209 27.252073,25.509875 26.010757,37.606185 c -0.191203,1.86323 -0.319952,9.493071 -0.291595,17.280326 l 0.05078,13.943999 0.388374,-16.676276 0.388373,-16.676275 1.198328,-3.54984 C 31.95026,19.470814 40.500957,11.113238 52.067432,8.1550313 c 3.524456,-0.9014034 11.373485,-0.8988542 14.9069,0.00484 5.925208,1.5154128 10.143744,4.0237177 15.121671,8.9912137 4.440294,4.430991 6.75223,7.964972 8.884913,13.581296 1.487658,3.917676 1.700696,6.193563 2.05114,21.912329 0.182435,8.182819 0.468852,16.24932 0.636487,17.925557 0.36595,3.659256 1.201248,5.317738 3.655277,7.257535 1.589543,1.256463 2.212019,1.495028 7.264,2.783944 3.46751,0.88467 5.45456,3.212743 5.43389,6.366472 -0.008,1.29871 -1.09528,3.35029 -2.36553,4.465587 -1.10009,0.965889 -1.36912,1.039396 -4.54739,1.24248 -1.85797,0.118719 -22.81256,0.170478 -46.565762,0.115021 L 13.355381,92.700473 12.177502,91.802011 C 10.076943,90.199748 9.4825881,89.052426 9.4825881,86.59984 c 0,-1.947488 0.1069897,-2.309174 1.0156249,-3.433351 1.404387,-1.737527 2.432122,-2.258622 5.977879,-3.030965 3.499191,-0.762201 5.436085,-1.764765 6.828976,-3.534776 1.681543,-2.136812 2.367102,-3.82333 2.322523,-5.71355 l -0.04079,-1.729702 -0.24092,1.638205 c -0.333931,2.270665 -1.632311,4.673768 -3.411075,6.313373 -1.745804,1.609228 -2.423484,1.909273 -5.749006,2.545388 -3.539653,0.677077 -4.342313,0.997457 -5.461348,2.179894 -1.2893573,1.362406 -1.6180826,2.032945 -1.8919152,3.859171 -0.4337029,2.892418 1.0388659,5.73504 3.7238302,7.188416 1.152917,0.624079 2.121903,0.635448 47.282036,0.554817 L 105.9434,93.35444 Z"
       id="path8319" />
    <path
       style="fill:#ffffff;fill-opacity:1;stroke:#ffffff;stroke-width:0.933;stroke-linecap:round;stroke-linejoin:bevel;stroke-opacity:1;paint-order:markers stroke fill;stroke-miterlimit:4;stroke-dasharray:none"
       d="M 56.568543,119.36021 C 49.03786,117.74736 42.832379,111.53646 41.328742,104.10712 l -0.40474,-1.99978 -14.249271,-0.16565 C 10.469054,101.75329 10.571587,101.76904 6.7226507,98.875747 0.58925417,94.265188 -1.0603196,84.969806 3.1034029,78.481208 4.4116518,76.442478 7.208017,73.860643 9.0997809,72.944854 10.511855,72.261281 14.364918,71.299779 15.737027,71.28858 17.315693,71.275697 17.316913,71.26386 17.53591,53.820819 17.755328,36.344363 17.880388,34.788594 19.505862,29.314241 23.19813,16.879239 32.362307,6.3969892 43.728768,1.6073798 l 1.87459,-0.78991531 0.0056,-2.19105959 c 0.01645,-6.455911 3.021022,-11.6886379 8.09022,-14.0897969 2.094099,-0.991933 2.421294,-1.049391 5.975738,-1.049391 3.616345,0 3.847985,0.04281 6.049237,1.118047 5.18039,2.530436 7.995868,7.3102261 8.008752,13.5963141 l 0.0054,2.61588639 3.44695,1.74884981 c 4.503684,2.2849961 7.76882,4.7515604 11.623515,8.7806907 6.566375,6.863524 10.634601,14.961772 12.26894,24.422671 0.37797,2.18797 0.55668,6.808805 0.7221,18.670006 0.1677,12.025697 0.31861,15.881376 0.63658,16.26426 0.24465,0.294592 1.46004,0.65426 2.94288,0.870878 6.1747,0.902026 11.45388,5.649641 12.80656,11.517064 0.76057,3.299042 0.25655,7.398184 -1.3067,10.627437 -1.12123,2.316152 -4.20037,5.404252 -6.60611,6.625349 -1.81832,0.92293 -2.56643,1.09261 -5.98325,1.35711 -2.14779,0.16627 -8.842731,0.30578 -14.877636,0.31004 l -10.972555,0.008 -0.539271,2.24695 c -1.721616,7.17341 -6.639162,12.58069 -13.21571,14.53186 -2.13523,0.6335 -6.402215,0.92888 -8.116009,0.56183 z m 7.347243,-9.1981 c 2.06314,-0.90966 4.166201,-3.04605 5.279509,-5.36316 0.518452,-1.07906 0.942759,-2.14585 0.9429,-2.37065 2.02e-4,-0.3186 -2.3401,-0.40873 -10.612275,-0.40873 H 48.913387 l 0.484949,1.38969 c 1.175648,3.36896 4.278802,6.4815 7.317072,7.33919 1.914829,0.54055 5.262892,0.26791 7.200378,-0.58634 z m 35.64324,-16.861053 6.964004,-0.216879 1.31632,-1.009317 c 1.8195,-1.395147 2.62739,-3.083633 2.60515,-5.444768 -0.0305,-3.238334 -1.96256,-5.760104 -4.95922,-6.472897 -0.64725,-0.153954 -2.1272,-0.460046 -3.28879,-0.680205 -1.16158,-0.220157 -2.530484,-0.616709 -3.042004,-0.881227 -1.461535,-0.755788 -3.408193,-2.880627 -4.360166,-4.759259 L 93.922958,72.116959 93.644661,55.268895 C 93.491595,46.002461 93.207477,37.464397 93.013287,36.295423 92.819097,35.126449 92.222246,32.857436 91.686954,31.253175 87.471993,18.621046 76.874037,9.1295072 64.811648,7.1836353 61.573583,6.6612788 54.399548,6.944763 51.500263,7.709639 39.540371,10.864843 30.129444,20.588111 26.734731,33.297114 l -0.844551,3.161802 -0.05766,15.531825 c -0.06089,16.400437 -0.0063,15.900322 0.445885,-4.087322 l 0.281123,-12.42546 1.191909,-3.54984 c 1.431763,-4.264192 3.539504,-8.422873 5.769346,-11.383216 3.574497,-4.745505 9.178151,-9.035552 14.465685,-11.074641 4.583513,-1.7675894 6.335738,-2.0259311 12.669401,-1.867926 5.451036,0.1359859 5.861734,0.1930335 8.665124,1.2036184 5.424213,1.9553576 9.699968,4.8613066 14.01999,9.5284626 3.523576,3.80671 5.748825,7.41781 7.639934,12.397967 1.444055,3.802845 1.6943,6.302367 2.030134,20.2774 0.544974,22.677881 0.529057,22.522347 2.568591,25.097471 1.677676,2.11824 3.384277,3.064475 7.333028,4.065849 4.99127,1.265749 6.45807,2.482113 6.98777,5.794692 0.29157,1.823374 -0.54903,3.931664 -2.14107,5.36998 -1.21068,1.093771 -1.36452,1.138453 -4.64045,1.347822 -1.86354,0.119098 -22.822689,0.171168 -46.575891,0.115711 L 13.355381,92.700473 12.177502,91.802011 c -2.09349,-1.596871 -2.6949139,-2.75205 -2.6949139,-5.176228 0,-1.863678 0.1251198,-2.314902 0.9370859,-3.379444 1.321833,-1.733012 2.442037,-2.313732 6.043986,-3.133227 1.735518,-0.394858 3.787052,-1.08159 4.558964,-1.526072 2.456382,-1.414429 4.654747,-5.061292 4.60012,-7.631123 l -0.03128,-1.471436 -0.252924,1.493799 c -0.367974,2.173285 -1.686151,4.547578 -3.403738,6.130794 -1.775436,1.636541 -2.336049,1.873864 -6.319312,2.675153 -4.346488,0.874356 -5.9889827,2.258644 -6.6811482,5.630855 -0.6344532,3.091036 0.8128605,5.967354 3.7289932,7.410813 l 1.397053,0.691526 39.26732,2.58e-4 c 21.597026,1.44e-4 42.401121,-0.09734 46.231318,-0.216622 z"
       id="path8469" />
    <path
       style="fill:#ffffff;fill-opacity:1;stroke:#ffffff;stroke-width:0.00144508;stroke-linecap:round;stroke-linejoin:bevel;stroke-opacity:1;paint-order:markers stroke fill;stroke-miterlimit:4;stroke-dasharray:none"
       d="m 92.240156,34.129335 c -0.0033,-0.0099 -0.03835,-0.151372 -0.07782,-0.314306 -0.271729,-1.12153 -0.761845,-2.564318 -1.487689,-4.379413 -1.055711,-2.639981 -2.268809,-4.950994 -3.646024,-6.945856 -0.09443,-0.136774 -0.171683,-0.252445 -0.171683,-0.257046 0,-0.0046 0.06009,-0.0065 0.133523,-0.0042 l 0.133522,0.0042 0.06968,0.101156 c 0.03832,0.05564 0.169264,0.254334 0.290977,0.441551 1.640866,2.523954 2.891429,5.075974 3.889375,7.937039 0.292139,0.837547 1.008256,3.110002 1.067668,3.388029 l 0.01004,0.04697 h -0.102758 c -0.06935,0 -0.104724,-0.0059 -0.108805,-0.01806 z"
       id="path8508" />
    <path
       style="fill:#ffffff;fill-opacity:1;stroke:#ffffff;stroke-width:0.00144508;stroke-linecap:round;stroke-linejoin:bevel;stroke-opacity:1;paint-order:markers stroke fill;stroke-miterlimit:4;stroke-dasharray:none"
       d="m 92.296088,34.137095 -0.04495,-0.0057 -0.09065,-0.356893 C 91.897055,32.7373 91.549366,31.67892 91.008645,30.268245 89.842241,27.225239 88.650419,24.87549 87.13599,22.633073 l -0.266334,-0.394361 0.127309,0.0042 0.12731,0.0042 0.191593,0.289017 c 1.751172,2.641635 3.125986,5.447889 4.148665,8.468208 0.273343,0.807277 0.819184,2.54295 0.946405,3.009393 l 0.03646,0.133671 -0.05318,-0.0023 c -0.02925,-0.0013 -0.07341,-0.0049 -0.09813,-0.008 z"
       id="path8547" />
    <path
       style="fill:#ffffff;fill-opacity:1;stroke:#ffffff;stroke-width:7.60097742;stroke-linecap:round;stroke-linejoin:round;stroke-opacity:1;paint-order:markers stroke fill;stroke-miterlimit:4;stroke-dasharray:none"
       d="m 92.296107,34.137097 -0.04493,-0.0057 -0.08324,-0.327993 c -0.298091,-1.174521 -0.717471,-2.422158 -1.370775,-4.077993 -1.092016,-2.767777 -2.237089,-4.983513 -3.676165,-7.11344 l -0.251414,-0.37211 h 0.123003 c 0.147572,0 0.09932,-0.05168 0.43846,0.469654 1.125601,1.730316 2.02239,3.376578 2.817844,5.172801 0.54189,1.223647 0.980404,2.381623 1.44012,3.802897 0.321216,0.993085 0.641047,2.023892 0.72318,2.3308 l 0.03516,0.131363 -0.05315,-0.0023 c -0.02923,-0.0013 -0.07337,-0.0049 -0.09808,-0.008 z"
       id="path8586" />
  </g>
</svg>
