<?xml version="1.0" encoding="UTF-8" standalone="no"?>
<!-- Created with Inkscape (http://www.inkscape.org/) -->

<svg
   width="120"
   height="120"
   viewBox="0 0 120 120"
   version="1.1"
   id="svg5"
   inkscape:version="1.1.2 (b8e25be833, 2022-02-05)"
   sodipodi:docname="lupa.svg"
   xmlns:inkscape="http://www.inkscape.org/namespaces/inkscape"
   xmlns:sodipodi="http://sodipodi.sourceforge.net/DTD/sodipodi-0.dtd"
   xmlns="http://www.w3.org/2000/svg"
   xmlns:svg="http://www.w3.org/2000/svg">
  <sodipodi:namedview
     id="namedview7"
     pagecolor="#505050"
     bordercolor="#ffffff"
     borderopacity="1"
     inkscape:pageshadow="0"
     inkscape:pageopacity="0"
     inkscape:pagecheckerboard="1"
     inkscape:document-units="px"
     showgrid="false"
     inkscape:zoom="3.0582368"
     inkscape:cx="58.039979"
     inkscape:cy="43.489111"
     inkscape:window-width="1366"
     inkscape:window-height="705"
     inkscape:window-x="-8"
     inkscape:window-y="-8"
     inkscape:window-maximized="1"
     inkscape:current-layer="layer1" />
  <defs
     id="defs2">
    <linearGradient
       id="linearGradient10660"
       inkscape:swatch="solid">
      <stop
         style="stop-color:#ffffff;stop-opacity:1;"
         offset="0"
         id="stop10658" />
    </linearGradient>
  </defs>
  <g
     inkscape:label="Capa 1"
     inkscape:groupmode="layer"
     id="layer1">
    <path
       style="fill:#f9f9f9;fill-opacity:0;stroke-width:0.0326985;stroke-linecap:round;stroke-linejoin:bevel;stroke-opacity:0.991131;paint-order:markers stroke fill;stroke-miterlimit:4;stroke-dasharray:none"
       d="M 12.8677,92.544213 C 11.164568,91.626815 9.4069186,89.446706 9.1514813,87.934786 8.5333602,84.276161 11.000569,80.882582 14.714361,80.2832 c 2.723922,-0.439626 4.616707,-0.933972 5.744556,-1.500335 1.990061,-0.999334 4.072141,-3.652457 4.972595,-6.336409 0.200171,-0.596641 0.428281,-8.056936 0.565477,-18.4938 0.216929,-16.502467 0.270013,-17.641968 0.936814,-20.109626 3.467099,-12.83084 11.916531,-21.901182 23.818212,-25.5685022 2.672252,-0.8234131 3.286168,-0.8854729 8.7594,-0.8854729 5.474471,0 6.086732,0.061928 8.762104,0.8862561 5.343317,1.6463693 9.065527,3.88116 13.403825,8.047569 4.47771,4.300298 7.076675,8.152707 9.187663,13.618757 2.041016,5.284858 2.148803,6.391322 2.452047,25.170566 0.311951,19.31837 0.20087,18.549447 3.132478,21.683573 1.658511,1.773084 3.713088,2.812571 6.224008,3.148965 4.39755,0.58915 6.64809,2.234627 7.31602,5.349075 0.196,0.913899 0.29773,1.850688 0.22607,2.081752 -0.0717,0.231065 -0.21828,0.822065 -0.32582,1.313332 -0.24271,1.108776 -1.90993,3.04394 -3.25923,3.783036 -0.93861,0.514133 -4.42489,0.561454 -46.79218,0.635124 -44.96049,0.07818 -45.79931,0.06813 -46.9707,-0.562847 z"
       id="path7045" />
    <path
       style="fill:#ff0000;fill-opacity:0;stroke-width:0.0326985;stroke-linecap:round;stroke-linejoin:bevel;stroke-opacity:0.991131;paint-order:markers stroke fill;stroke-miterlimit:4;stroke-dasharray:none"
       d="M 12.8677,92.544213 C 11.164568,91.626815 9.4069186,89.446706 9.1514813,87.934786 8.5333602,84.276161 11.000569,80.882582 14.714361,80.2832 c 2.723922,-0.439626 4.616707,-0.933972 5.744556,-1.500335 1.990061,-0.999334 4.072141,-3.652457 4.972595,-6.336409 0.200171,-0.596641 0.428281,-8.056936 0.565477,-18.4938 0.216929,-16.502467 0.270013,-17.641968 0.936814,-20.109626 3.467099,-12.83084 11.916531,-21.901182 23.818212,-25.5685022 2.672252,-0.8234131 3.286168,-0.8854729 8.7594,-0.8854729 5.474471,0 6.086732,0.061928 8.762104,0.8862561 5.343317,1.6463693 9.065527,3.88116 13.403825,8.047569 4.47771,4.300298 7.076675,8.152707 9.187663,13.618757 2.041016,5.284858 2.148803,6.391322 2.452047,25.170566 0.311951,19.31837 0.20087,18.549447 3.132478,21.683573 1.658511,1.773084 3.713088,2.812571 6.224008,3.148965 4.39755,0.58915 6.64809,2.234627 7.31602,5.349075 0.196,0.913899 0.29773,1.850688 0.22607,2.081752 -0.0717,0.231065 -0.21828,0.822065 -0.32582,1.313332 -0.24271,1.108776 -1.90993,3.04394 -3.25923,3.783036 -0.93861,0.514133 -4.42489,0.561454 -46.79218,0.635124 -44.96049,0.07818 -45.79931,0.06813 -46.9707,-0.562847 z"
       id="path7084" />
    <path
       style="fill:#ff0000;fill-opacity:0;stroke-width:0.0326986;stroke-linecap:round;stroke-linejoin:bevel;stroke-opacity:0.991131;paint-order:markers stroke fill"
       d="m 56.568543,119.36021 c -3.986481,-0.85379 -7.935076,-3.14043 -10.645886,-6.16507 -1.968713,-2.19662 -4.024561,-6.27525 -4.602983,-9.13191 l -0.4138,-2.04366 -10.970349,-0.0248 c -6.033692,-0.0137 -12.680924,-0.12946 -14.771628,-0.25736 -3.416123,-0.20899 -4.019163,-0.34315 -5.9516687,-1.32404 C 3.9253654,97.7299 0.81746449,92.644113 0.81746449,86.676132 c 0,-4.20402 1.29158451,-7.465753 4.17838181,-10.551972 2.5991836,-2.778738 5.4377427,-4.137786 9.7838107,-4.684307 0.935124,-0.117591 1.891557,-0.444155 2.125408,-0.725696 0.330212,-0.397553 0.470556,-4.170851 0.628323,-16.893093 0.131096,-10.571546 0.347304,-17.25095 0.609632,-18.833594 0.580514,-3.502283 2.089086,-8.374103 3.617411,-11.682156 C 26.247628,13.592804 34.622606,5.3297481 43.73435,1.6250632 L 45.614518,0.86061746 V -1.3520186 c 0,-6.4595337 3.005507,-11.7055084 8.084639,-14.1113734 2.094112,-0.991933 2.421307,-1.049391 5.975751,-1.049391 3.616345,0 3.847985,0.04281 6.049237,1.118047 5.18039,2.530436 7.995868,7.3102261 8.008752,13.5963141 l 0.0054,2.61588639 3.469996,1.76056641 c 4.441641,2.2535501 7.718987,4.73568 11.621896,8.8019531 6.492136,6.763882 10.509023,14.717544 12.209701,24.175876 0.39812,2.214151 0.56093,6.411567 0.71674,18.477454 0.13513,10.46517 0.32218,15.855404 0.56735,16.349289 0.30049,0.605313 0.83072,0.813525 2.9711,1.166673 3.60772,0.595251 6.42119,2.012659 8.82759,4.447278 4.69393,4.748968 5.74999,11.538949 2.75645,17.722767 -1.12123,2.316152 -4.20037,5.404252 -6.60611,6.625349 -1.81832,0.92293 -2.56643,1.09261 -5.98325,1.35711 -2.14779,0.16627 -8.842729,0.30578 -14.877634,0.31004 l -10.972555,0.008 -0.539271,2.24695 c -1.721616,7.17341 -6.639162,12.58069 -13.21571,14.53186 -2.13523,0.6335 -6.402215,0.92888 -8.116009,0.56183 z m 7.714229,-9.34472 c 2.727676,-1.38222 4.970465,-4.18647 5.71235,-7.14237 l 0.214228,-0.85355 H 59.566711 48.924072 l 0.507365,1.48904 c 1.142553,3.35321 4.158157,6.35792 7.261795,7.23558 2.180724,0.61667 5.578342,0.29045 7.58954,-0.7287 z M 107.1766,92.587731 c 2.61991,-1.628873 3.7411,-4.2528 3.15306,-7.379137 -0.36524,-1.941825 -1.5476,-3.578781 -3.19022,-4.416784 -0.67015,-0.341886 -2.57152,-0.870272 -4.22527,-1.174186 -4.342435,-0.798032 -6.315565,-2.242276 -8.248869,-6.037812 -0.734959,-1.4429 -0.749177,-1.695173 -1.01363,-17.984219 C 93.504155,46.509158 93.287694,38.191941 93.170646,37.112888 92.670949,32.50624 89.47755,24.94862 86.186268,20.583403 82.569992,15.787139 77.089432,11.396934 72.117947,9.3139625 67.448223,7.357426 65.635469,7.0297129 59.511415,7.0349307 53.25428,7.0402618 51.397625,7.3886469 46.595476,9.4584931 36.515442,13.803239 28.803741,23.43913 26.295215,34.823987 c -0.219831,0.997696 -0.446109,8.453332 -0.580556,19.128669 l -0.220318,17.49374 -0.936288,2.038531 c -0.992552,2.161036 -3.398203,4.729451 -5.011628,5.350711 -0.499529,0.192349 -2.011812,0.560819 -3.360628,0.818824 -3.539653,0.677077 -4.342313,0.997457 -5.461348,2.179894 -1.2893573,1.362406 -1.6180826,2.032945 -1.8919152,3.859171 -0.4337029,2.892418 1.0388659,5.73504 3.7238302,7.188416 1.152917,0.624079 2.121903,0.635448 47.282036,0.554817 l 46.105,-0.08232 z"
       id="path7160" />
    <path
       style="fill:#ffffff;fill-opacity:0;stroke-width:0.0326986;stroke-linecap:round;stroke-linejoin:bevel;stroke-opacity:0.991131;paint-order:markers stroke fill"
       d="m 56.568543,119.36021 c -3.986481,-0.85379 -7.935076,-3.14043 -10.645886,-6.16507 -1.968713,-2.19662 -4.024561,-6.27525 -4.602983,-9.13191 l -0.4138,-2.04366 -10.970349,-0.0248 c -6.033692,-0.0137 -12.680924,-0.12946 -14.771628,-0.25736 -3.416123,-0.20899 -4.019163,-0.34315 -5.9516687,-1.32404 C 3.9253654,97.7299 0.81746449,92.644113 0.81746449,86.676132 c 0,-4.20402 1.29158451,-7.465753 4.17838181,-10.551972 2.5991836,-2.778738 5.4377427,-4.137786 9.7838107,-4.684307 0.935124,-0.117591 1.891557,-0.444155 2.125408,-0.725696 0.330212,-0.397553 0.470556,-4.170851 0.628323,-16.893093 0.131096,-10.571546 0.347304,-17.25095 0.609632,-18.833594 0.580514,-3.502283 2.089086,-8.374103 3.617411,-11.682156 C 26.247628,13.592804 34.622606,5.3297481 43.73435,1.6250632 L 45.614518,0.86061746 V -1.3520186 c 0,-6.4595337 3.005507,-11.7055084 8.084639,-14.1113734 2.094112,-0.991933 2.421307,-1.049391 5.975751,-1.049391 3.616345,0 3.847985,0.04281 6.049237,1.118047 5.18039,2.530436 7.995868,7.3102261 8.008752,13.5963141 l 0.0054,2.61588639 3.469996,1.76056641 c 4.441641,2.2535501 7.718987,4.73568 11.621896,8.8019531 6.492136,6.763882 10.509023,14.717544 12.209701,24.175876 0.39812,2.214151 0.56093,6.411567 0.71674,18.477454 0.13513,10.46517 0.32218,15.855404 0.56735,16.349289 0.30049,0.605313 0.83072,0.813525 2.9711,1.166673 3.60772,0.595251 6.42119,2.012659 8.82759,4.447278 4.69393,4.748968 5.74999,11.538949 2.75645,17.722767 -1.12123,2.316152 -4.20037,5.404252 -6.60611,6.625349 -1.81832,0.92293 -2.56643,1.09261 -5.98325,1.35711 -2.14779,0.16627 -8.842729,0.30578 -14.877634,0.31004 l -10.972555,0.008 -0.539271,2.24695 c -1.721616,7.17341 -6.639162,12.58069 -13.21571,14.53186 -2.13523,0.6335 -6.402215,0.92888 -8.116009,0.56183 z m 7.714229,-9.34472 c 2.727676,-1.38222 4.970465,-4.18647 5.71235,-7.14237 l 0.214228,-0.85355 H 59.566711 48.924072 l 0.507365,1.48904 c 1.142553,3.35321 4.158157,6.35792 7.261795,7.23558 2.180724,0.61667 5.578342,0.29045 7.58954,-0.7287 z M 107.1766,92.587731 c 2.61991,-1.628873 3.7411,-4.2528 3.15306,-7.379137 -0.36524,-1.941825 -1.5476,-3.578781 -3.19022,-4.416784 -0.67015,-0.341886 -2.57152,-0.870272 -4.22527,-1.174186 -4.342435,-0.798032 -6.315565,-2.242276 -8.248869,-6.037812 -0.734959,-1.4429 -0.749177,-1.695173 -1.01363,-17.984219 C 93.504155,46.509158 93.287694,38.191941 93.170646,37.112888 92.670949,32.50624 89.47755,24.94862 86.186268,20.583403 82.569992,15.787139 77.089432,11.396934 72.117947,9.3139625 67.448223,7.357426 65.635469,7.0297129 59.511415,7.0349307 53.25428,7.0402618 51.397625,7.3886469 46.595476,9.4584931 36.515442,13.803239 28.803741,23.43913 26.295215,34.823987 c -0.219831,0.997696 -0.446109,8.453332 -0.580556,19.128669 l -0.220318,17.49374 -0.936288,2.038531 c -0.992552,2.161036 -3.398203,4.729451 -5.011628,5.350711 -0.499529,0.192349 -2.011812,0.560819 -3.360628,0.818824 -3.539653,0.677077 -4.342313,0.997457 -5.461348,2.179894 -1.2893573,1.362406 -1.6180826,2.032945 -1.8919152,3.859171 -0.4337029,2.892418 1.0388659,5.73504 3.7238302,7.188416 1.152917,0.624079 2.121903,0.635448 47.282036,0.554817 l 46.105,-0.08232 z"
       id="path7199" />
    <path
       style="fill:#ffffff;fill-opacity:0;stroke-width:0.0326985;stroke-linecap:round;stroke-linejoin:bevel;stroke-opacity:0.991131;paint-order:markers stroke fill;stroke-miterlimit:4;stroke-dasharray:none"
       d="M 12.8677,92.544213 C 11.164568,91.626815 9.4069186,89.446706 9.1514813,87.934786 8.5333602,84.276161 11.000569,80.882582 14.714361,80.2832 c 2.723922,-0.439626 4.616707,-0.933972 5.744556,-1.500335 1.990061,-0.999334 4.072141,-3.652457 4.972595,-6.336409 0.200171,-0.596641 0.428281,-8.056936 0.565477,-18.4938 0.216929,-16.502467 0.270013,-17.641968 0.936814,-20.109626 3.467099,-12.83084 11.916531,-21.901182 23.818212,-25.5685022 2.672252,-0.8234131 3.286168,-0.8854729 8.7594,-0.8854729 5.474471,0 6.086732,0.061928 8.762104,0.8862561 5.343317,1.6463693 9.065527,3.88116 13.403825,8.047569 4.47771,4.300298 7.076675,8.152707 9.187663,13.618757 2.041016,5.284858 2.148803,6.391322 2.452047,25.170566 0.311951,19.31837 0.20087,18.549447 3.132478,21.683573 1.658511,1.773084 3.713088,2.812571 6.224008,3.148965 4.39755,0.58915 6.64809,2.234627 7.31602,5.349075 0.196,0.913899 0.29773,1.850688 0.22607,2.081752 -0.0717,0.231065 -0.21828,0.822065 -0.32582,1.313332 -0.24271,1.108776 -1.90993,3.04394 -3.25923,3.783036 -0.93861,0.514133 -4.42489,0.561454 -46.79218,0.635124 -44.96049,0.07818 -45.79931,0.06813 -46.9707,-0.562847 z"
       id="path7275" />
    <path
       style="fill:#ffffff;fill-opacity:0;stroke-width:0.0326985;stroke-linecap:round;stroke-linejoin:bevel;stroke-opacity:0.991131;paint-order:markers stroke fill;stroke-miterlimit:4;stroke-dasharray:none"
       d="M 12.8677,92.544213 C 11.164568,91.626815 9.4069186,89.446706 9.1514813,87.934786 8.5333602,84.276161 11.000569,80.882582 14.714361,80.2832 c 2.723922,-0.439626 4.616707,-0.933972 5.744556,-1.500335 1.990061,-0.999334 4.072141,-3.652457 4.972595,-6.336409 0.200171,-0.596641 0.428281,-8.056936 0.565477,-18.4938 0.216929,-16.502467 0.270013,-17.641968 0.936814,-20.109626 3.467099,-12.83084 11.916531,-21.901182 23.818212,-25.5685022 2.672252,-0.8234131 3.286168,-0.8854729 8.7594,-0.8854729 5.474471,0 6.086732,0.061928 8.762104,0.8862561 5.343317,1.6463693 9.065527,3.88116 13.403825,8.047569 4.47771,4.300298 7.076675,8.152707 9.187663,13.618757 2.041016,5.284858 2.148803,6.391322 2.452047,25.170566 0.311951,19.31837 0.20087,18.549447 3.132478,21.683573 1.658511,1.773084 3.713088,2.812571 6.224008,3.148965 4.39755,0.58915 6.64809,2.234627 7.31602,5.349075 0.196,0.913899 0.29773,1.850688 0.22607,2.081752 -0.0717,0.231065 -0.21828,0.822065 -0.32582,1.313332 -0.24271,1.108776 -1.90993,3.04394 -3.25923,3.783036 -0.93861,0.514133 -4.42489,0.561454 -46.79218,0.635124 -44.96049,0.07818 -45.79931,0.06813 -46.9707,-0.562847 z"
       id="path7314" />
    <path
       style="fill:#ffffff;fill-opacity:0;stroke-width:0.0326985;stroke-linecap:round;stroke-linejoin:bevel;stroke-opacity:0.991131;paint-order:markers stroke fill;stroke-miterlimit:4;stroke-dasharray:none"
       d="M 12.8677,92.544213 C 11.164568,91.626815 9.4069186,89.446706 9.1514813,87.934786 8.5333602,84.276161 11.000569,80.882582 14.714361,80.2832 c 2.723922,-0.439626 4.616707,-0.933972 5.744556,-1.500335 1.990061,-0.999334 4.072141,-3.652457 4.972595,-6.336409 0.200171,-0.596641 0.428281,-8.056936 0.565477,-18.4938 0.216929,-16.502467 0.270013,-17.641968 0.936814,-20.109626 3.467099,-12.83084 11.916531,-21.901182 23.818212,-25.5685022 2.672252,-0.8234131 3.286168,-0.8854729 8.7594,-0.8854729 5.474471,0 6.086732,0.061928 8.762104,0.8862561 5.343317,1.6463693 9.065527,3.88116 13.403825,8.047569 4.47771,4.300298 7.076675,8.152707 9.187663,13.618757 2.041016,5.284858 2.148803,6.391322 2.452047,25.170566 0.311951,19.31837 0.20087,18.549447 3.132478,21.683573 1.658511,1.773084 3.713088,2.812571 6.224008,3.148965 4.39755,0.58915 6.64809,2.234627 7.31602,5.349075 0.196,0.913899 0.29773,1.850688 0.22607,2.081752 -0.0717,0.231065 -0.21828,0.822065 -0.32582,1.313332 -0.24271,1.108776 -1.90993,3.04394 -3.25923,3.783036 -0.93861,0.514133 -4.42489,0.561454 -46.79218,0.635124 -44.96049,0.07818 -45.79931,0.06813 -46.9707,-0.562847 z"
       id="path7390" />
    <path
       style="fill:#ffffff;stroke-width:0.232597;fill-opacity:1"
       d="m 108.0844,119.08988 c -2.83796,-0.55849 -2.52154,-0.27815 -19.815586,-17.55608 -8.89314,-8.884839 -16.23747,-16.154255 -16.32075,-16.154255 -0.0833,0 -0.91891,0.448061 -1.85696,0.995695 -10.20617,5.958331 -22.79676,7.779891 -34.26918,4.957941 C 17.558524,86.84081 4.1011544,72.066955 1.1454364,53.264447 c -0.51506302,-3.276524 -0.51506302,-10.1808 0,-13.457325 1.597892,-10.164844 6.032448,-18.983143 13.0413776,-25.933354 7.20039,-7.140064 15.75445,-11.4861854 25.71442,-13.0649154 3.40694,-0.54002503 10.45656,-0.54362903 13.71439,-0.007 14.79197,2.436486 26.76443,10.8650584 33.79522,23.7917174 3.73201,6.861601 5.51924,14.012414 5.50947,22.043736 -0.0104,8.566949 -2.00449,15.728615 -6.66076,23.921976 l -0.63231,1.112646 16.155796,16.215858 c 17.63413,17.699674 17.13308,17.121004 17.66573,20.402614 1.05357,6.49086 -4.83298,12.08482 -11.36437,10.79949 z m 4.37835,-3.85506 c 1.11682,-0.46386 2.52648,-1.86256 3.05622,-3.03247 0.76476,-1.68893 0.59602,-4.12671 -0.3911,-5.65028 -0.29229,-0.45114 -7.55262,-7.832071 -16.134046,-16.402067 l -15.60262,-15.581814 -1.09893,1.277076 c -2.19764,2.553877 -4.53285,4.836957 -5.04815,4.935462 -0.75208,0.143769 -1.44391,-0.168026 -1.89273,-0.853013 -0.54408,-0.830375 -0.31357,-1.43788 1.11009,-2.925615 4.06675,-4.249768 6.50095,-7.531316 8.40393,-11.329347 8.29077,-16.547084 5.06379,-36.315383 -8.06435,-49.40174 C 70.215744,9.7066582 61.803564,5.5362792 52.452634,4.20016 49.656304,3.8006031 43.534354,3.8574345 40.590174,4.3102818 31.276854,5.7427713 23.410374,9.7311282 16.738014,16.403496 8.5306844,24.610818 4.2793244,34.89307 4.2793244,46.535785 c 0,11.434109 4.23801,21.775451 12.2559896,29.906364 8.06969,8.183338 18.86302,12.670923 30.4365,12.654692 7.96054,-0.01116 15.87061,-2.319963 22.68979,-6.622724 1.11689,-0.704728 2.27727,-1.281325 2.57864,-1.281325 0.41506,0 4.61148,4.055077 17.30331,16.720473 9.21546,9.196265 17.092136,16.890345 17.503746,17.097975 1.71676,0.86596 3.67419,0.94677 5.41545,0.22358 z M 43.962834,82.339885 C 32.104724,81.408782 21.475164,74.603295 15.499674,64.116584 9.5082644,53.601918 9.3130944,40.415913 14.989284,29.633872 c 3.9006,-7.409277 10.55133,-13.452431 18.27407,-16.604642 4.37908,-1.787419 8.43448,-2.59369 13.25805,-2.635884 3.91642,-0.03426 9.233468,0.789856 9.871778,1.384538 0.575,0.535688 1.474673,2.244735 0.981344,2.919406 -0.06084,0.0832 0.261405,0.12676 -0.639886,0.09824 -0.901291,-0.02852 -5.095627,-0.710275 -9.087916,-0.705626 -5.78519,0.0067 -7.00212,0.17487 -11.12701,1.537311 -7.65967,2.529972 -14.52715,8.356702 -18.34719,15.56673 -6.64305,12.538214 -4.31666,28.116793 5.69122,38.111162 6.28155,6.273069 14.19143,9.559837 23.00656,9.559837 8.85725,0 16.89913,-3.339949 23.09112,-9.590191 6.95881,-7.02428 10.37611,-16.87225 9.22231,-26.576829 -1.22104,-10.270155 -7.01893,-19.102519 -16.05613,-24.459517 -2.47889,-1.469411 -7.546711,-3.506381 -7.133501,-4.59322 0.26214,-0.689465 -0.451477,-1.79845 0.343863,-1.798431 0.71301,1.6e-5 9.766738,3.90735 12.065058,5.623286 9.18313,6.856163 14.51152,17.485914 14.51152,28.94944 0,13.150567 -6.85681,24.84044 -18.46736,31.484189 -5.89838,3.375155 -13.37535,4.994409 -20.48435,4.43621 z"
       id="path1190"
       sodipodi:nodetypes="ssscssssscscscsssssssscsssscssscssssssssssssssszcscsssssssssss" />
    <path
       style="fill:#ffffff;fill-opacity:1;stroke:#ffffff;stroke-width:1.053;stroke-linecap:round;stroke-linejoin:round;stroke-miterlimit:4;stroke-dasharray:none;stroke-opacity:1;paint-order:markers stroke fill"
       d="m 108.03749,115.29501 c -0.5062,-0.18058 -1.26505,-0.66854 -1.88017,-1.20901 C 105.59006,113.58758 98.909116,107.02 91.310783,99.491384 76.98986,85.301863 72.625554,81.092477 72.234733,81.092477 c -0.307749,0 -1.255905,0.489509 -3.358617,1.733967 -5.659655,3.34958 -11.52858,5.321007 -17.755397,5.964204 -2.697754,0.278664 -8.567736,0.109115 -11.073891,-0.319857 C 35.62023,87.713101 32.13233,86.584727 28.120778,84.612584 23.676631,82.427769 20.304076,80.02883 16.922006,76.646759 13.401785,73.126538 10.801501,69.525964 8.7386659,65.315413 6.6251754,61.001466 5.5267293,57.504785 4.802239,52.784594 4.2893759,49.443193 4.2856944,43.605215 4.7943667,40.300999 6.2935095,30.562922 10.239435,22.934498 17.355734,16.016855 20.900074,12.571457 24.080212,10.311559 28.284271,8.250716 31.888233,6.4840435 35.805388,5.2270699 40.05576,4.47337 42.395116,4.058542 50.057701,3.9707363 52.614741,4.3294564 64.581893,6.0082953 75.404836,12.852627 82.161325,23.014452 c 3.55894,5.352679 5.720013,10.959094 6.726374,17.45004 0.471321,3.039981 0.509392,8.664955 0.07856,11.607996 -0.615968,4.207779 -1.666105,7.912561 -3.26717,11.526249 -2.051053,4.629337 -4.045248,7.568806 -8.343883,12.298987 -2.598388,2.859242 -2.755553,3.237403 -1.811684,4.359128 0.522869,0.621396 1.315406,0.798416 1.996869,0.446018 0.578373,-0.299089 3.19745,-2.903929 4.753226,-4.727389 l 1.087756,-1.274914 15.785976,15.825782 c 12.459631,12.491061 15.870221,15.998031 16.185791,16.643241 0.35032,0.71627 0.39982,1.04011 0.39982,2.61589 0,1.57635 -0.0476,1.88775 -0.38575,2.52182 -0.52814,0.99043 -1.8983,2.31798 -2.88176,2.79215 -1.11423,0.53722 -3.22951,0.63022 -4.44797,0.19556 z M 49.733809,82.388574 c 9.020294,-0.755514 16.995528,-4.536655 23.235718,-11.016296 5.228814,-5.429455 8.34816,-11.739148 9.622134,-19.463283 0.417857,-2.533475 0.417712,-8.4221 -3.27e-4,-10.954024 -1.312333,-7.949797 -4.809068,-14.819444 -10.30721,-20.249537 -2.680628,-2.64745 -4.160299,-3.683929 -7.859841,-5.505659 -3.520574,-1.733604 -8.324736,-3.754793 -9.654162,-4.061664 -1.495524,-0.345212 -4.298422,-0.671889 -6.659025,-0.776109 -15.650739,-0.6909738 -30.230867,9.319054 -35.341939,24.264106 -1.345871,3.935402 -1.937976,7.582147 -1.930137,11.887621 0.0072,3.940168 0.502517,7.240408 1.613193,10.747951 5.099095,16.103072 20.565405,26.526991 37.281596,25.126894 z"
       id="path12884" />
  </g>
</svg>
