<?xml version="1.0" encoding="UTF-8" standalone="no"?>
<!-- Created with Inkscape (http://www.inkscape.org/) -->

<svg
   width="120"
   height="120"
   viewBox="0 0 120 120"
   version="1.1"
   id="svg5"
   inkscape:version="1.1.2 (b8e25be833, 2022-02-05)"
   sodipodi:docname="regalo.svg"
   xmlns:inkscape="http://www.inkscape.org/namespaces/inkscape"
   xmlns:sodipodi="http://sodipodi.sourceforge.net/DTD/sodipodi-0.dtd"
   xmlns="http://www.w3.org/2000/svg"
   xmlns:svg="http://www.w3.org/2000/svg">
  <sodipodi:namedview
     id="namedview7"
     pagecolor="#505050"
     bordercolor="#ffffff"
     borderopacity="1"
     inkscape:pageshadow="0"
     inkscape:pageopacity="0"
     inkscape:pagecheckerboard="1"
     inkscape:document-units="px"
     showgrid="false"
     inkscape:zoom="2.1625"
     inkscape:cx="82.080925"
     inkscape:cy="36.99422"
     inkscape:window-width="1366"
     inkscape:window-height="705"
     inkscape:window-x="-8"
     inkscape:window-y="-8"
     inkscape:window-maximized="1"
     inkscape:current-layer="layer1" />
  <defs
     id="defs2" />
  <g
     inkscape:label="Capa 1"
     inkscape:groupmode="layer"
     id="layer1">
    <path
       style="fill:#ffffff;stroke-width:0.237789"
       d="m 7.6133378,118.95644 c -1.677426,-0.69764 -1.551533,1.92872 -1.551533,-32.367757 V 55.617499 l -2.121985,-0.06716 c -1.985507,-0.06284 -2.141947,-0.104538 -2.432368,-0.648285 -0.468698,-0.87753 -0.332105,-24.636301 0.144794,-25.18517 0.306029,-0.352211 2.262164,-0.385521 23.4737922,-0.3997 l 23.139943,-0.01547 -2.91553,-0.8083 c -6.120515,-1.696848 -9.642608,-3.437926 -11.382094,-5.626521 -2.064346,-2.597327 -3.087684,-5.500503 -3.087684,-8.759658 0,-3.928674 1.381755,-7.0786117 4.343304,-9.9012697 2.146424,-2.045762 4.109609,-3.060309 7.033444,-3.63478601 5.19955,-1.021614 11.28137,1.55277901 13.78138,5.83356501 1.5364,2.630801 3.42176,8.4026127 4.28137,13.1069327 0.16936,0.92689 0.38234,1.685256 0.47327,1.685256 0.0909,0 0.30392,-0.758366 0.47328,-1.685256 0.85961,-4.70432 2.74496,-10.4761317 4.28137,-13.1069327 2.49297,-4.268732 8.59647,-6.85230201 13.78138,-5.83356501 6.77279,1.33072301 11.3937,6.84557601 11.38034,13.58194271 -0.005,2.238764 -0.49623,4.302472 -1.47426,6.18647 -2.24434,4.323322 -5.08817,5.989698 -14.69838,8.612691 -1.0767,0.293871 1.43902,0.334741 21.92368,0.356165 21.204779,0.02218 23.167869,0.05634 23.473799,0.408434 0.4769,0.548869 0.61349,24.30764 0.14479,25.18517 -0.29042,0.543747 -0.44686,0.585442 -2.43237,0.648285 l -2.12198,0.06716 v 30.914859 c 0,28.736187 -0.0292,30.957477 -0.4146,31.519517 -0.90002,1.3126 2.34005,1.23934 -54.370039,1.22948 -43.577044,-0.008 -52.4952242,-0.0621 -53.1271132,-0.32491 z M 47.657851,86.28268 V 55.599399 H 28.076088 8.4943228 V 86.28268 116.96596 H 28.076088 47.657851 Z m 23.83867,-11.971129 v -42.65441 h -10.70308 -10.70307 v 42.65441 42.654409 h 10.70307 10.70308 z M 113.2142,86.28268 V 55.715623 l -19.642579,-0.05949 -19.64258,-0.05949 V 86.282674 116.9687 l 19.64258,-0.0595 19.642579,-0.0595 z M 47.599441,42.407912 47.536231,31.540917 H 25.64357 3.7509138 l -0.06322,10.866995 -0.06322,10.866996 H 25.643567 47.662658 Z m 70.299759,0 -0.0632,-10.866995 H 95.943321 74.050661 l -0.0632,10.866995 -0.0632,10.866996 h 22.0191 22.019099 z m -59.282889,-18.9704 c -1.26172,-7.18849 -2.79898,-12.554794 -4.45756,-15.5605257 -0.90506,-1.640176 -2.81522,-3.357596 -4.66552,-4.194768 -7.63135,-3.45281101 -16.231459,2.070802 -16.231459,10.4250157 0,4.419457 2.192005,7.986859 6.044295,9.836858 3.606984,1.732192 11.463754,3.695648 18.568354,4.640344 1.27032,0.168914 1.34177,0.151287 1.41471,-0.349015 0.0422,-0.289802 -0.26052,-2.448861 -0.67282,-4.797909 z m 8.38005,4.606589 c 2.00683,-0.327972 5.12653,-0.949517 6.93268,-1.38121 7.92649,-1.894539 11.0873,-3.611767 12.96658,-7.044581 1.13579,-2.074702 1.42002,-3.198348 1.42002,-5.613734 0,-8.3378437 -8.8382,-13.85648671 -16.37157,-10.2225367 -3.76764,1.817439 -5.44241,4.570024 -7.39157,12.1484947 -0.83596,3.250266 -2.29954,11.031565 -2.29954,12.22574 0,0.540135 0.0904,0.633559 0.54731,0.565577 0.30103,-0.04479 2.18927,-0.349776 4.19609,-0.67775 z"
       id="path1477" />
  </g>
</svg>
